<svg width="36" height="36" viewBox="0 0 36 36" fill="none" xmlns="http://www.w3.org/2000/svg">
<path d="M9 19.5H3C2.60218 19.5 2.22064 19.658 1.93934 19.9393C1.65804 20.2206 1.5 20.6022 1.5 21V33C1.5 33.3978 1.65804 33.7794 1.93934 34.0607C2.22064 34.342 2.60218 34.5 3 34.5H9C9.39782 34.5 9.77936 34.342 10.0607 34.0607C10.342 33.7794 10.5 33.3978 10.5 33V21C10.5 20.6022 10.342 20.2206 10.0607 19.9393C9.77936 19.658 9.39782 19.5 9 19.5ZM7.5 31.5H4.5V22.5H7.5V31.5ZM33 13.5H27C26.6022 13.5 26.2206 13.658 25.9393 13.9393C25.658 14.2206 25.5 14.6022 25.5 15V33C25.5 33.3978 25.658 33.7794 25.9393 34.0607C26.2206 34.342 26.6022 34.5 27 34.5H33C33.3978 34.5 33.7794 34.342 34.0607 34.0607C34.342 33.7794 34.5 33.3978 34.5 33V15C34.5 14.6022 34.342 14.2206 34.0607 13.9393C33.7794 13.658 33.3978 13.5 33 13.5ZM31.5 31.5H28.5V16.5H31.5V31.5ZM21 1.5H15C14.6022 1.5 14.2206 1.65804 13.9393 1.93934C13.658 2.22064 13.5 2.60218 13.5 3V33C13.5 33.3978 13.658 33.7794 13.9393 34.0607C14.2206 34.342 14.6022 34.5 15 34.5H21C21.3978 34.5 21.7794 34.342 22.0607 34.0607C22.342 33.7794 22.5 33.3978 22.5 33V3C22.5 2.60218 22.342 2.22064 22.0607 1.93934C21.7794 1.65804 21.3978 1.5 21 1.5ZM19.5 31.5H16.5V4.5H19.5V31.5Z" fill="white"/>
</svg>
